<?xml version="1.0" encoding="UTF-8"?>
<svg xmlns="http://www.w3.org/2000/svg" viewBox="0 0 1280 1024">
  <defs>
    <style>
      .cls-1 {
        fill: #33f;
      }
    </style>
  </defs>
  <g id="Capa_1" data-name="Capa 1">
    <path class="cls-1" d="M650.47,512.91l-15.59,62.81H208.62c-8.67,0-16.52-3.51-22.2-9.2-5.69-5.68-9.2-13.53-9.2-22.2,0-17.35,14.06-31.41,31.4-31.41h441.85Z"/>
    <path class="cls-1" d="M281.94,435.54h387.73l-15.59,62.81h-372.14c-8.67,0-16.53-3.52-22.21-9.2-5.68-5.68-9.2-13.53-9.2-22.2,0-17.35,14.06-31.41,31.41-31.41Z"/>
    <path class="cls-1" d="M281.94,590.28h349.33l-15.59,62.81h-333.74c-8.67,0-16.53-3.52-22.21-9.2-5.68-5.68-9.2-13.53-9.2-22.2,0-17.35,14.06-31.41,31.41-31.41Z"/>
    <path class="cls-1" d="M389.41,357.79h299.56l-15.59,62.81h-283.97c-8.68,0-16.53-3.51-22.21-9.2-5.69-5.68-9.2-13.53-9.2-22.21,0-17.34,14.06-31.4,31.41-31.4Z"/>
    <path class="cls-1" d="M426.06,667.65h186l-15.59,62.81h-170.41c-8.67,0-16.52-3.51-22.2-9.2-5.69-5.68-9.2-13.53-9.2-22.2,0-17.35,14.06-31.41,31.4-31.41Z"/>
  </g>
  <g id="Capa_5" data-name="Capa 5">
    <path d="M859.64,589.58h-131.31l-35.09,140.88h-83.47l92.5-372.67h84l-37.75,151.52h130.78l37.75-151.52h83.47l-92.5,372.67h-83.47l35.09-140.88Z"/>
  </g>
</svg>