<?xml version="1.0" encoding="UTF-8"?>
<svg id="Capa_10" data-name="Capa 10" xmlns="http://www.w3.org/2000/svg" viewBox="0 0 1280 1024">
  <defs>
    <style>
      .cls-1 {
        letter-spacing: -.05em;
      }

      .cls-2, .cls-3, .cls-4 {
        fill: #fff;
      }

      .cls-3 {
        font-family: Adrianna-BoldItalic, Adrianna;
        font-size: 127.42px;
        font-weight: 700;
      }

      .cls-3, .cls-4 {
        font-style: italic;
      }

      .cls-5 {
        letter-spacing: -.01em;
      }

      .cls-4 {
        font-family: Adrianna-LightItalic, Adrianna;
        font-size: 27.98px;
        font-weight: 300;
      }

      .cls-6 {
        letter-spacing: -.02em;
      }

      .cls-7 {
        letter-spacing: -.02em;
      }

      .cls-8 {
        letter-spacing: 0em;
      }
    </style>
  </defs>
  <path class="cls-2" d="M308.8,523.6l-5.09,20.52h-139.24c-2.83,0-5.4-1.15-7.25-3.01-1.86-1.86-3.01-4.42-3.01-7.25,0-5.67,4.59-10.26,10.26-10.26h144.33Z"/>
  <path class="cls-2" d="M188.42,498.33h126.66l-5.09,20.52h-121.56c-2.83,0-5.4-1.15-7.26-3.01-1.86-1.86-3.01-4.42-3.01-7.25,0-5.67,4.59-10.26,10.26-10.26Z"/>
  <path class="cls-2" d="M188.42,548.88h114.11l-5.09,20.52h-109.02c-2.83,0-5.4-1.15-7.26-3.01-1.86-1.86-3.01-4.42-3.01-7.25,0-5.67,4.59-10.26,10.26-10.26Z"/>
  <path class="cls-2" d="M223.52,472.93h97.85l-5.09,20.52h-92.76c-2.84,0-5.4-1.15-7.26-3.01-1.86-1.86-3.01-4.42-3.01-7.26,0-5.66,4.59-10.26,10.26-10.26Z"/>
  <path class="cls-2" d="M235.49,574.15h60.76l-5.09,20.52h-55.67c-2.83,0-5.4-1.15-7.25-3.01-1.86-1.86-3.01-4.42-3.01-7.25,0-5.67,4.59-10.26,10.26-10.26Z"/>
  <text class="cls-3" transform="translate(304.25 562.16)"><tspan x="0" y="0">Hands-Hands</tspan></text>
  <text class="cls-4" transform="translate(303.53 594.67)"><tspan x="0" y="0">Cleaning &amp; Res</tspan><tspan class="cls-6" x="186.81" y="0">t</tspan><tspan x="196.61" y="0">o</tspan><tspan class="cls-1" x="212.87" y="0">r</tspan><tspan class="cls-5" x="221.07" y="0">a</tspan><tspan class="cls-8" x="236.77" y="0">tion Se</tspan><tspan class="cls-7" x="324.07" y="0">r</tspan><tspan x="332.97" y="0">vices</tspan></text>
</svg>