<?xml version="1.0" encoding="UTF-8" standalone="no"?>
<svg
   id="Capa_10"
   data-name="Capa 10"
   viewBox="0 0 1280 256"
   version="1.1"
   sodipodi:docname="HH_FullWhite_resize.svg"
   width="1280"
   height="256"
   inkscape:version="1.4.2 (ebf0e94, 2025-05-08)"
   xmlns:inkscape="http://www.inkscape.org/namespaces/inkscape"
   xmlns:sodipodi="http://sodipodi.sourceforge.net/DTD/sodipodi-0.dtd"
   xmlns="http://www.w3.org/2000/svg"
   xmlns:svg="http://www.w3.org/2000/svg">
  <sodipodi:namedview
     id="namedview13"
     pagecolor="#ffffff"
     bordercolor="#000000"
     borderopacity="0.25"
     inkscape:showpageshadow="2"
     inkscape:pageopacity="0.0"
     inkscape:pagecheckerboard="0"
     inkscape:deskcolor="#d1d1d1"
     showgrid="false"
     inkscape:zoom="0.56982422"
     inkscape:cx="362.39246"
     inkscape:cy="293.9503"
     inkscape:window-width="2560"
     inkscape:window-height="1369"
     inkscape:window-x="-8"
     inkscape:window-y="-8"
     inkscape:window-maximized="1"
     inkscape:current-layer="Capa_10" />
  <defs
     id="defs1">
    <style
       id="style1">
      .cls-1 {
        letter-spacing: -.05em;
      }

      .cls-2, .cls-3, .cls-4 {
        fill: #fff;
      }

      .cls-3 {
        font-family: Adrianna-BoldItalic, Adrianna;
        font-size: 127.42px;
        font-weight: 700;
      }

      .cls-3, .cls-4 {
        font-style: italic;
      }

      .cls-5 {
        letter-spacing: -.01em;
      }

      .cls-4 {
        font-family: Adrianna-LightItalic, Adrianna;
        font-size: 27.98px;
        font-weight: 300;
      }

      .cls-6 {
        letter-spacing: -.02em;
      }

      .cls-7 {
        letter-spacing: -.02em;
      }

      .cls-8 {
        letter-spacing: 0em;
      }
    </style>
  </defs>
  <path
     class="cls-2"
     d="m 308.8,123.6 -5.09,20.52 H 164.47 c -2.83,0 -5.4,-1.15 -7.25,-3.01 -1.86,-1.86 -3.01,-4.42 -3.01,-7.25 0,-5.67 4.59,-10.26 10.26,-10.26 z"
     id="path1"
     sodipodi:nodetypes="ccscssc" />
  <path
     class="cls-2"
     d="m 188.42,98.33 h 126.66 l -5.09,20.52 H 188.43 c -2.83,0 -5.4,-1.15 -7.26,-3.01 -1.86,-1.86 -3.01,-4.42 -3.01,-7.25 0,-5.67 4.59,-10.26 10.26,-10.26 z"
     id="path2"
     sodipodi:nodetypes="sccssss" />
  <path
     class="cls-2"
     d="m 188.42,148.88 h 114.11 l -5.09,20.52 H 188.42 c -2.83,0 -5.4,-1.15 -7.26,-3.01 -1.86,-1.86 -3.01,-4.42 -3.01,-7.25 0,-5.67 4.59,-10.26 10.26,-10.26 z"
     id="path3"
     sodipodi:nodetypes="cccssssc" />
  <path
     class="cls-2"
     d="m 223.52,72.93 h 97.85 l -5.09,20.52 h -92.76 c -2.84,0 -5.4,-1.15 -7.26,-3.01 -1.86,-1.86 -3.01,-4.42 -3.01,-7.26 0,-5.66 4.59,-10.26 10.26,-10.26 z"
     id="path4"
     sodipodi:nodetypes="cccssscc" />
  <path
     class="cls-2"
     d="m 235.49,174.15 h 60.76 l -5.09,20.52 h -55.67 c -2.83,0 -5.4,-1.15 -7.25,-3.01 -1.86,-1.86 -3.01,-4.42 -3.01,-7.25 0,-5.67 4.59,-10.26 10.26,-10.26 z"
     id="path5"
     sodipodi:nodetypes="sccscss" />
  <text
     class="cls-3"
     id="text5"
     x="304.25"
     y="162.15997"><tspan
       x="304.25"
       y="162.15997"
       id="tspan5">Hands-Hands</tspan></text>
  <text
     class="cls-4"
     id="text13"
     x="303.53"
     y="194.66998"><tspan
       x="303.53"
       y="194.66998"
       id="tspan6">Cleaning &amp; Res</tspan><tspan
       class="cls-6"
       x="490.34"
       y="194.66998"
       id="tspan7">t</tspan><tspan
       x="500.14001"
       y="194.66998"
       id="tspan8">o</tspan><tspan
       class="cls-1"
       x="516.40002"
       y="194.66998"
       id="tspan9">r</tspan><tspan
       class="cls-5"
       x="524.60004"
       y="194.66998"
       id="tspan10">a</tspan><tspan
       class="cls-8"
       x="540.29999"
       y="194.66998"
       id="tspan11">tion Se</tspan><tspan
       class="cls-7"
       x="627.60004"
       y="194.66998"
       id="tspan12">r</tspan><tspan
       x="636.5"
       y="194.66998"
       id="tspan13">vices</tspan></text>
</svg>
